<?xml version="1.0" encoding="UTF-8" standalone="no"?>
<!-- Created with Inkscape (http://www.inkscape.org/) -->

<svg
   width="1004.3861"
   height="338.4502"
   viewBox="0 0 265.74381 89.548279"
   version="1.1"
   id="svg1"
   xmlns="http://www.w3.org/2000/svg"
   xmlns:svg="http://www.w3.org/2000/svg">
  <defs
     id="defs1" />
  <g
     id="layer1"
     transform="translate(-12.648927,-47.830026)">
    <rect
       style="display:none;fill:#000000;fill-opacity:1;stroke:#800bff;stroke-width:0.262977;stroke-linecap:round;stroke-linejoin:round"
       id="rect1"
       width="290.41562"
       height="184.08479"
       x="-0.033562854"
       y="0.66160506" />
    <g
       id="g4"
       transform="translate(13.648928,22.830026)">
      <path
         style="font-weight:bold;font-size:50.8px;line-height:338.666px;font-family:Roboto;-inkscape-font-specification:'Roboto Bold';text-align:center;text-anchor:middle;fill:#ffffff;stroke-width:0.264583;stroke-linecap:round;stroke-linejoin:round"
         d="m 68.245957,99.425456 h 7.416602 q -0.223242,3.646294 -2.00918,6.474024 -1.761133,2.82773 -4.936133,4.41523 -3.150195,1.5875 -7.590234,1.5875 -3.472656,0 -6.225976,-1.19062 -2.753321,-1.21543 -4.712891,-3.47266 -1.934765,-2.25722 -2.951758,-5.45703 -1.016992,-3.199803 -1.016992,-7.168553 v -2.505273 q 0,-3.96875 1.041797,-7.168555 1.066602,-3.224609 3.026172,-5.481836 1.984375,-2.257226 4.737695,-3.472656 2.75332,-1.21543 6.151563,-1.21543 4.514453,0 7.615039,1.63711 3.12539,1.637109 4.836913,4.514453 1.736329,2.877344 2.083594,6.548437 h -7.441406 q -0.124023,-2.182812 -0.868164,-3.695898 -0.744141,-1.537891 -2.257227,-2.306836 -1.488281,-0.79375 -3.968749,-0.79375 -1.860352,0 -3.249414,0.694531 -1.389063,0.694531 -2.331641,2.108399 -0.942578,1.413867 -1.413867,3.571875 -0.446485,2.133203 -0.446485,5.010546 v 2.554883 q 0,2.80293 0.42168,4.936133 0.42168,2.1084 1.289844,3.57187 0.892969,1.43868 2.282031,2.18282 1.413867,0.71933 3.398242,0.71933 2.331641,0 3.844727,-0.74414 1.513086,-0.74414 2.306836,-2.20761 0.818554,-1.46348 0.967382,-3.646294 z M 87.072715,73.306121 V 111.40612 H 79.928966 V 73.306121 Z m -1.016992,23.738085 h -1.95957 q 0.02481,-2.802929 0.744141,-5.159374 0.719336,-2.38125 2.058789,-4.117579 1.339453,-1.761132 3.199804,-2.728515 1.885156,-0.967383 4.167188,-0.967383 1.984375,0 3.596679,0.570508 1.63711,0.545703 2.802926,1.785937 1.19063,1.21543 1.83555,3.199805 0.64492,1.984375 0.64492,4.812109 V 111.40612 H 95.952793 V 94.390105 q 0,-1.785938 -0.520898,-2.80293 -0.496094,-1.041797 -1.463477,-1.463476 -0.942578,-0.446485 -2.33164,-0.446485 -1.537891,0 -2.629297,0.570508 -1.066602,0.570508 -1.711523,1.5875 -0.644922,0.992188 -0.942579,2.331641 -0.297656,1.339453 -0.297656,2.877343 z m 36.983787,8.309574 V 93.397917 q 0,-1.289843 -0.42168,-2.207617 -0.42168,-0.942578 -1.31465,-1.463476 -0.86816,-0.520899 -2.25723,-0.520899 -1.19062,0 -2.05878,0.42168 -0.86817,0.396875 -1.33946,1.16582 -0.47129,0.744141 -0.47129,1.761133 h -7.14375 q 0,-1.711523 0.79375,-3.249414 0.79375,-1.537891 2.30684,-2.703711 1.51309,-1.190625 3.59668,-1.860351 2.1084,-0.669727 4.71289,-0.669727 3.12539,0 5.55625,1.041797 2.43086,1.041797 3.81992,3.125391 1.41387,2.083593 1.41387,5.208984 V 104.9321 q 0,2.20761 0.27285,3.62148 0.27285,1.38906 0.79375,2.43086 v 0.42168 h -7.21816 q -0.5209,-1.09141 -0.79375,-2.72852 -0.24805,-1.66191 -0.24805,-3.32382 z m 0.94258,-10.293949 0.0496,4.043164 h -3.99356 q -1.41387,0 -2.45566,0.322461 -1.0418,0.322461 -1.71153,0.917774 -0.66972,0.57051 -0.99218,1.33945 -0.29766,0.76895 -0.29766,1.68672 0,0.91778 0.42168,1.66192 0.42168,0.71933 1.21543,1.14101 0.79375,0.39688 1.86035,0.39688 1.61231,0 2.80293,-0.64493 1.19063,-0.64492 1.83555,-1.5875 0.66972,-0.94257 0.69453,-1.78593 l 1.88516,3.02617 q -0.39688,1.01699 -1.09141,2.1084 -0.66973,1.0914 -1.71152,2.05879 -1.0418,0.94257 -2.50528,1.56269 -1.46347,0.59531 -3.47265,0.59531 -2.55489,0 -4.63848,-1.01699 -2.05879,-1.04179 -3.27422,-2.85254 -1.19062,-1.83554 -1.19062,-4.16718 0,-2.1084 0.79375,-3.74551 0.79375,-1.637112 2.33164,-2.753323 1.56269,-1.141015 3.89433,-1.711523 2.33164,-0.595313 5.40742,-0.595313 z M 148.886,84.567449 v 5.060156 h -15.62695 v -5.060156 z m -11.75742,-6.622852 h 7.14375 v 25.375193 q 0,1.16582 0.29765,1.78594 0.32246,0.62012 0.94258,0.86816 0.62012,0.22325 1.5627,0.22325 0.66972,0 1.19062,-0.0496 0.54571,-0.0744 0.91778,-0.14883 l 0.0248,5.25859 q -0.91777,0.29766 -1.98437,0.47129 -1.06661,0.17363 -2.35645,0.17363 -2.35644,0 -4.11758,-0.76894 -1.73633,-0.79375 -2.6789,-2.53008 -0.94258,-1.73633 -0.94258,-4.56406 z m 45.91347,14.560352 v 1.711523 q 0,4.117578 -1.11621,7.391798 -1.11621,3.27422 -3.1502,5.58105 -2.03398,2.28203 -4.86172,3.49746 -2.80293,1.21543 -6.22597,1.21543 -3.39824,0 -6.22598,-1.21543 -2.80293,-1.21543 -4.86172,-3.49746 -2.05879,-2.30683 -3.1998,-5.58105 -1.11621,-3.27422 -1.11621,-7.391798 v -1.711523 q 0,-4.142383 1.11621,-7.391797 1.11621,-3.274219 3.15019,-5.581055 2.05879,-2.306836 4.86172,-3.522265 2.82774,-1.21543 6.22598,-1.21543 3.42305,0 6.22598,1.21543 2.82773,1.215429 4.86171,3.522265 2.05879,2.306836 3.175,5.581055 1.14102,3.249414 1.14102,7.391797 z m -7.51582,1.711523 v -1.761133 q 0,-2.877343 -0.5209,-5.060156 -0.5209,-2.182812 -1.53789,-3.671094 -1.01699,-1.488281 -2.48047,-2.232421 -1.46348,-0.768946 -3.34863,-0.768946 -1.88516,0 -3.34863,0.768946 -1.43868,0.74414 -2.45567,2.232421 -0.99219,1.488282 -1.51308,3.671094 -0.5209,2.182813 -0.5209,5.060156 v 1.761133 q 0,2.852539 0.5209,5.060156 0.52089,2.182812 1.53789,3.695902 1.01699,1.48828 2.48047,2.25722 1.46347,0.76895 3.34863,0.76895 1.88515,0 3.34863,-0.76895 1.46348,-0.76894 2.45566,-2.25722 0.99219,-1.51309 1.51309,-3.695902 0.5209,-2.207617 0.5209,-5.060156 z m 42.26719,-18.925976 v 36.115624 h -7.4414 L 195.84127,87.196746 v 24.209374 h -7.4414 V 75.290496 h 7.4414 l 14.53555,24.234179 V 75.290496 Z"
         id="text2"
         aria-label="ChatON" />
      <path
         style="fill:#ffffff;stroke-width:0.264583;stroke-linecap:round;stroke-linejoin:round"
         d="M 43.490741,74.41731 C 50.030609,68.13415 66.468033,65.05608 69.608415,67.01912 65.165973,49.627335 49.442694,24.324061 45.519671,25.013807 41.523674,25.716384 38.293963,56.57687 43.490741,74.41731 Z"
         id="path1-5" />
      <path
         style="fill:#ffffff;stroke-width:0.264583;stroke-linecap:round;stroke-linejoin:round"
         d="m 222.0175,74.41731 c -6.53986,-6.28316 -22.97729,-9.36123 -26.11767,-7.39819 4.44244,-17.391782 20.16572,-42.695062 24.08874,-42.005312 3.996,0.70258 7.22571,31.563062 2.02893,49.403502 z"
         id="path1-5-9" />
      <g
         id="g3"
         transform="translate(-1.8110169,4.3521875)">
        <path
           style="fill:none;stroke:#ffffff;stroke-width:1.32292;stroke-linecap:round;stroke-linejoin:round;stroke-dasharray:none;stroke-opacity:1"
           d="M 44.893371,85.758969 C 34.93786,80.191716 15.976509,82.067164 1.6486626,86.423201"
           id="path2" />
        <path
           style="fill:none;stroke:#ffffff;stroke-width:1.32292;stroke-linecap:round;stroke-linejoin:round;stroke-dasharray:none;stroke-opacity:1"
           d="M 44.630022,92.615509 C 34.226221,87.939247 15.501199,91.463976 1.6086712,97.055031"
           id="path2-1" />
        <path
           style="fill:none;stroke:#ffffff;stroke-width:1.32292;stroke-linecap:round;stroke-linejoin:round;stroke-dasharray:none;stroke-opacity:1"
           d="M 43.46859,99.196711 C 32.518706,96.001933 14.459821,102.07868 1.4724769,109.53463"
           id="path2-1-2" />
      </g>
      <g
         id="g2"
         transform="translate(2.22204,3.3448015)">
        <path
           style="fill:none;stroke:#ffffff;stroke-width:1.32292;stroke-linecap:round;stroke-linejoin:round;stroke-dasharray:none;stroke-opacity:1"
           d="m 218.43942,86.76635 c 9.95551,-5.567253 28.91686,-3.691805 43.2447,0.664232"
           id="path2-2" />
        <path
           style="fill:none;stroke:#ffffff;stroke-width:1.32292;stroke-linecap:round;stroke-linejoin:round;stroke-dasharray:none;stroke-opacity:1"
           d="m 218.70277,93.62289 c 10.4038,-4.676262 29.12882,-1.151533 43.02135,4.439522"
           id="path2-1-3" />
        <path
           style="fill:none;stroke:#ffffff;stroke-width:1.32292;stroke-linecap:round;stroke-linejoin:round;stroke-dasharray:none;stroke-opacity:1"
           d="m 219.8642,100.20409 c 10.94988,-3.194776 29.00877,2.88197 41.99611,10.33793"
           id="path2-1-2-2" />
      </g>
    </g>
  </g>
</svg>
